<svg width="139" height="98" viewBox="0 0 139 98" fill="none" xmlns="http://www.w3.org/2000/svg">
<g id="Group 26092571">
<path id="Rectangle 4019" d="M0 16.625H82.0167C88.2239 16.625 91.3275 16.625 93.6984 17.833C95.7839 18.8956 97.4794 20.5911 98.542 22.6766C99.75 25.0475 99.75 28.1511 99.75 34.3583V65.3917C99.75 71.5989 99.75 74.7025 98.542 77.0734C97.4794 79.1589 95.7839 80.8544 93.6984 81.917C91.3275 83.125 88.2239 83.125 82.0167 83.125H17.7333C11.5261 83.125 8.42246 83.125 6.0516 81.917C3.96614 80.8544 2.27061 79.1589 1.20801 77.0734C0 74.7025 0 71.5989 0 65.3917V16.625Z" fill="#FFC692"/>
<path id="Rectangle 4018" d="M0 16.625C0 11.4608 0 8.87872 0.843668 6.84193C1.96856 4.1262 4.1262 1.96856 6.84193 0.843668C8.87872 0 11.4608 0 16.625 0H29.6099C34.1403 0 36.4054 0 38.4422 0.843668C40.479 1.68734 42.0807 3.28905 45.2841 6.49247L55.4167 16.625H0Z" fill="#FFC692"/>
<g id="Group 26092570">
<path id="Icon" fill-rule="evenodd" clip-rule="evenodd" d="M105.213 54.2812C100.176 48.2873 91.7034 46.6128 85.2796 52.0051C78.8558 57.3975 77.8787 66.4984 82.8297 72.9854C85.8896 76.9946 93.5821 84.3273 99.0123 89.3442C101.019 91.1979 102.022 92.1247 103.235 92.5049C104.276 92.831 105.476 92.8414 106.523 92.5336C107.743 92.1747 108.762 91.2655 110.8 89.4471C116.317 84.5258 124.137 77.3284 127.266 73.3732C132.33 66.9736 131.621 57.8006 125.183 52.3534C118.744 46.9061 110.354 48.3761 105.213 54.2812Z" fill="url(#paint0_linear_304_7109)"/>
<path id="Vector 153" d="M79.375 68.2873H96.3963C96.806 68.2873 97.1743 68.0373 97.3256 67.6565L99.3453 62.5734C99.6764 61.7401 100.851 61.727 101.198 62.5541C103.907 69.0252 107.967 78.6371 107.967 78.2819C107.967 77.9116 109.525 72.6519 110.476 69.4958C110.603 69.0738 110.992 68.787 111.432 68.787H138.375" stroke="white" stroke-width="2"/>
</g>
<path id="Subtract" fill-rule="evenodd" clip-rule="evenodd" d="M46.8988 63.6037C57.275 63.6037 65.6867 55.192 65.6867 44.8158C65.6867 34.4395 57.275 26.0278 46.8988 26.0278C36.5225 26.0278 28.1108 34.4395 28.1108 44.8158C28.1108 55.192 36.5225 63.6037 46.8988 63.6037ZM46.8988 31.3958C45.1364 31.3958 43.3913 31.7429 41.7632 32.4174C40.135 33.0918 38.6556 34.0803 37.4094 35.3264C36.1633 36.5726 35.1748 38.052 34.5003 39.6802C33.8259 41.3084 33.4788 43.0534 33.4788 44.8158C33.4788 46.2981 34.6805 47.4998 36.1628 47.4998C37.6451 47.4998 38.8468 46.2981 38.8468 44.8158C38.8468 43.7584 39.0551 42.7113 39.4597 41.7344C39.8644 40.7575 40.4575 39.8699 41.2052 39.1222C41.9529 38.3745 42.8405 37.7814 43.8174 37.3767C44.7943 36.9721 45.8414 36.7638 46.8988 36.7638C48.3811 36.7638 49.5827 35.5621 49.5827 34.0798C49.5827 32.5975 48.3811 31.3958 46.8988 31.3958Z" fill="url(#paint1_linear_304_7109)"/>
<path id="Vector 109" d="M71.0545 68.9715L65.6865 63.6035" stroke="#FFEBE2" stroke-width="5.36798" stroke-linecap="round"/>
</g>
<defs>
<linearGradient id="paint0_linear_304_7109" x1="100.683" y1="46.5782" x2="112.19" y2="91.0709" gradientUnits="userSpaceOnUse">
<stop stop-color="#FF9999"/>
<stop offset="1" stop-color="#EF3B3B"/>
</linearGradient>
<linearGradient id="paint1_linear_304_7109" x1="28.2016" y1="26.2093" x2="72.3319" y2="37.2686" gradientUnits="userSpaceOnUse">
<stop stop-color="white"/>
<stop offset="1" stop-color="#FFDBCF"/>
</linearGradient>
</defs>
</svg>
