<svg width="36" height="36" viewBox="0 0 36 36" fill="none" xmlns="http://www.w3.org/2000/svg">
<path d="M8.57812 24.9704H23.4042C24.0921 24.9704 24.7609 24.754 25.3105 24.3523L29.1485 21.5522C30.1064 20.8537 31.4471 20.9464 32.2939 21.7701C33.2343 22.6849 33.2343 24.1668 32.2939 25.0801L29.0007 28.2835C28.1143 29.1458 26.9833 29.7346 25.7537 29.9741L21.0992 30.8796C20.1763 31.0589 19.2247 31.0372 18.3113 30.8147L14.1016 29.7917C13.598 29.6681 13.0817 29.6063 12.5623 29.6063H8.57812" fill="url(#paint0_linear_803_3000)"/>
<path d="M8.57812 24.9704L22.0571 24.9703C23.3868 24.9703 24.4638 23.9226 24.4638 22.6291V22.1609C24.4638 21.0869 23.7124 20.1505 22.6417 19.8909L19.0007 19.0054C18.4082 18.8617 17.8013 18.7891 17.1913 18.7891C15.7187 18.7891 13.0531 20.0083 13.0531 20.0083L8.57812 21.8797" fill="url(#paint1_linear_803_3000)"/>
<rect x="4" y="20.3164" width="4.57895" height="10.6842" rx="1.52632" fill="#D77114"/>
<path fill-rule="evenodd" clip-rule="evenodd" d="M25.4378 7.31833C24.5269 5.41218 22.4267 4.40235 20.3843 5.37704C18.3419 6.35173 17.4717 8.66321 18.3268 10.6924C18.8553 11.9464 20.3695 14.3817 21.4491 16.0592C21.848 16.679 22.0475 16.9889 22.3388 17.1702C22.5887 17.3257 22.9015 17.4095 23.1957 17.3998C23.5386 17.3885 23.8663 17.2198 24.5217 16.8825C26.2954 15.9696 28.8244 14.6176 29.9091 13.7958C31.6642 12.4661 32.099 10.0219 30.785 8.16389C29.4709 6.30585 27.1798 6.12302 25.4378 7.31833Z" fill="url(#paint2_linear_803_3000)"/>
<defs>
<linearGradient id="paint0_linear_803_3000" x1="8" y1="24" x2="33.5" y2="23" gradientUnits="userSpaceOnUse">
<stop stop-color="#FFCEAA"/>
<stop offset="1" stop-color="#FF9432"/>
</linearGradient>
<linearGradient id="paint1_linear_803_3000" x1="8" y1="24" x2="33.5" y2="23" gradientUnits="userSpaceOnUse">
<stop stop-color="#FFCEAA"/>
<stop offset="1" stop-color="#FF9432"/>
</linearGradient>
<linearGradient id="paint2_linear_803_3000" x1="24.775" y1="5" x2="24.775" y2="17.4006" gradientUnits="userSpaceOnUse">
<stop stop-color="#FF9999"/>
<stop offset="1" stop-color="#EF3B3B"/>
</linearGradient>
</defs>
</svg>
