<svg width="197" height="197" viewBox="0 0 197 197" fill="none" xmlns="http://www.w3.org/2000/svg">
<path d="M194.5 98.5C194.5 45.4807 151.519 2.5 98.5 2.5C45.4807 2.5 2.5 45.4807 2.5 98.5C2.5 151.519 45.4807 194.5 98.5 194.5C151.519 194.5 194.5 151.519 194.5 98.5Z" fill="#F4F4F4" stroke="url(#paint0_linear_584_409)" stroke-width="5"/>
<g filter="url(#filter0_iiii_584_409)">
<path d="M192 98.5C192 150.139 150.139 192 98.5 192C46.8614 192 5 150.139 5 98.5C5 46.8614 46.8614 5 98.5 5C150.139 5 192 46.8614 192 98.5Z" fill="#F4F4F4"/>
</g>
<path d="M191.5 98.5C191.5 149.862 149.862 191.5 98.5 191.5C47.1375 191.5 5.5 149.862 5.5 98.5C5.5 47.1375 47.1375 5.5 98.5 5.5C149.862 5.5 191.5 47.1375 191.5 98.5Z" stroke="#B0B0B0"/>
<g filter="url(#filter1_iiii_584_409)">
<path d="M160 99C160 133.242 132.242 161 98 161C63.7583 161 36 133.242 36 99C36 64.7583 63.7583 37 98 37C132.242 37 160 64.7583 160 99Z" fill="#F4F4F4"/>
</g>
<path d="M105.445 11.2727V28H102.39L95.1129 17.4719H94.9904V28H91.4538V11.2727H94.5575L101.778 21.7926H101.925V11.2727H105.445Z" fill="#FF3737"/>
<path d="M100.528 175.083C100.463 174.425 100.182 173.913 99.6868 173.548C99.1913 173.183 98.5188 173.001 97.6694 173.001C97.0922 173.001 96.6049 173.082 96.2074 173.246C95.8099 173.404 95.505 173.624 95.2926 173.907C95.0857 174.19 94.9822 174.512 94.9822 174.871C94.9714 175.171 95.034 175.432 95.1701 175.655C95.3117 175.878 95.505 176.072 95.75 176.235C95.995 176.393 96.2782 176.532 96.5994 176.652C96.9207 176.766 97.2637 176.864 97.6286 176.946L99.1314 177.305C99.861 177.468 100.531 177.686 101.141 177.958C101.75 178.231 102.279 178.566 102.725 178.963C103.172 179.361 103.517 179.829 103.762 180.368C104.013 180.907 104.141 181.525 104.146 182.222C104.141 183.246 103.879 184.133 103.362 184.885C102.85 185.631 102.11 186.21 101.141 186.624C100.177 187.033 99.0143 187.237 97.6531 187.237C96.3027 187.237 95.1265 187.03 94.1246 186.616C93.1282 186.202 92.3496 185.59 91.7887 184.778C91.2333 183.962 90.942 182.952 90.9148 181.748H94.337C94.3751 182.309 94.5357 182.777 94.8189 183.153C95.1075 183.523 95.4914 183.804 95.9705 183.994C96.4551 184.179 97.0024 184.272 97.6122 184.272C98.2112 184.272 98.7312 184.185 99.1722 184.011C99.6187 183.836 99.9645 183.594 100.21 183.284C100.455 182.973 100.577 182.617 100.577 182.214C100.577 181.838 100.465 181.522 100.242 181.266C100.024 181.01 99.7031 180.793 99.2784 180.613C98.8591 180.433 98.3446 180.27 97.7347 180.123L95.9134 179.665C94.5031 179.322 93.3896 178.786 92.5728 178.056C91.756 177.327 91.3504 176.344 91.3558 175.108C91.3504 174.095 91.6199 173.21 92.1644 172.453C92.7144 171.697 93.4685 171.106 94.4268 170.681C95.3852 170.256 96.4742 170.044 97.6939 170.044C98.9354 170.044 100.019 170.256 100.945 170.681C101.876 171.106 102.6 171.697 103.117 172.453C103.634 173.21 103.901 174.087 103.918 175.083H100.528Z" fill="#1A1A1A"/>
<path d="M171.454 106V89.2727H182.725V92.1886H174.99V96.1744H182.145V99.0902H174.99V103.084H182.758V106H171.454Z" fill="#1A1A1A"/>
<path d="M15.2191 104L10.4329 87.2727H14.2962L17.065 98.8952H17.2038L20.2585 87.2727H23.5664L26.6129 98.9197H26.7599L29.5288 87.2727H33.392L28.6058 104H25.1591L21.9737 93.0636H21.843L18.6658 104H15.2191Z" fill="#1A1A1A"/>
<circle cx="98.5" cy="99.5" r="30" fill="#F5F5F5" stroke="#B0B0B0"/>
<path d="M103.3 108.806L42.1575 99L103.3 89.1943V108.806Z" fill="#F5F5F5" stroke="#B0B0B0"/>
<path d="M103.5 98.5014V89.5856L47.3386 98.5001L103.5 98.5014Z" fill="#B0B0B0" stroke="#B0B0B0"/>
<path d="M107.806 93.1004L98 154.243L88.1943 93.1004H107.806Z" fill="#F5F5F5" stroke="#B0B0B0"/>
<path d="M97.5014 92.9004H88.5856L97.5001 149.062L97.5014 92.9004Z" fill="#B0B0B0" stroke="#B0B0B0"/>
<path d="M89.1943 104.3L99 43.1575L108.806 104.3H89.1943Z" fill="#F5F5F5" stroke="#B0B0B0"/>
<path d="M99.4986 104.5H108.414L99.4999 48.3386L99.4986 104.5Z" fill="#B0B0B0" stroke="#B0B0B0"/>
<path d="M94.1004 90.1943L155.243 100L94.1004 109.806V90.1943Z" fill="#F5F5F5" stroke="#B0B0B0"/>
<path d="M93.9004 100.499V109.414L150.062 100.5L93.9004 100.499Z" fill="#B0B0B0" stroke="#B0B0B0"/>
<path d="M95.4096 104.766L73.536 74.5368L103.766 96.4104L95.4096 104.766Z" fill="#F5F5F5" stroke="#B0B0B0"/>
<path d="M99.5868 99.8806L102.713 96.7545L78.5602 78.8532L99.5868 99.8806Z" fill="#B0B0B0" stroke="#B0B0B0"/>
<path d="M101.38 94.0246L123.254 124.254L93.0244 102.381L101.38 94.0246Z" fill="#F5F5F5" stroke="#B0B0B0"/>
<path d="M97.2032 98.9104L94.0772 102.036L118.23 119.938L97.2032 98.9104Z" fill="#B0B0B0" stroke="#B0B0B0"/>
<path d="M103.765 102.381L73.5359 124.255L95.4094 94.0254L103.765 102.381Z" fill="#F5F5F5" stroke="#B0B0B0"/>
<path d="M98.8806 98.2032L95.7545 95.0772L77.8532 119.23L98.8806 98.2032Z" fill="#B0B0B0" stroke="#B0B0B0"/>
<path d="M93.0246 96.4096L123.254 74.536L101.381 104.766L93.0246 96.4096Z" fill="#F5F5F5" stroke="#B0B0B0"/>
<path d="M97.9094 100.588L101.035 103.714L118.937 79.5612L97.9094 100.588Z" fill="#B0B0B0" stroke="#B0B0B0"/>
<defs>
<filter id="filter0_iiii_584_409" x="3" y="3" width="191" height="191" filterUnits="userSpaceOnUse" color-interpolation-filters="sRGB">
<feFlood flood-opacity="0" result="BackgroundImageFix"/>
<feBlend mode="normal" in="SourceGraphic" in2="BackgroundImageFix" result="shape"/>
<feColorMatrix in="SourceAlpha" type="matrix" values="0 0 0 0 0 0 0 0 0 0 0 0 0 0 0 0 0 0 127 0" result="hardAlpha"/>
<feOffset dx="2" dy="2"/>
<feGaussianBlur stdDeviation="2"/>
<feComposite in2="hardAlpha" operator="arithmetic" k2="-1" k3="1"/>
<feColorMatrix type="matrix" values="0 0 0 0 0 0 0 0 0 0 0 0 0 0 0 0 0 0 0.25 0"/>
<feBlend mode="normal" in2="shape" result="effect1_innerShadow_584_409"/>
<feColorMatrix in="SourceAlpha" type="matrix" values="0 0 0 0 0 0 0 0 0 0 0 0 0 0 0 0 0 0 127 0" result="hardAlpha"/>
<feOffset dx="-2" dy="-2"/>
<feGaussianBlur stdDeviation="2"/>
<feComposite in2="hardAlpha" operator="arithmetic" k2="-1" k3="1"/>
<feColorMatrix type="matrix" values="0 0 0 0 0 0 0 0 0 0 0 0 0 0 0 0 0 0 0.25 0"/>
<feBlend mode="normal" in2="effect1_innerShadow_584_409" result="effect2_innerShadow_584_409"/>
<feColorMatrix in="SourceAlpha" type="matrix" values="0 0 0 0 0 0 0 0 0 0 0 0 0 0 0 0 0 0 127 0" result="hardAlpha"/>
<feOffset dx="2" dy="-2"/>
<feGaussianBlur stdDeviation="2"/>
<feComposite in2="hardAlpha" operator="arithmetic" k2="-1" k3="1"/>
<feColorMatrix type="matrix" values="0 0 0 0 0 0 0 0 0 0 0 0 0 0 0 0 0 0 0.25 0"/>
<feBlend mode="normal" in2="effect2_innerShadow_584_409" result="effect3_innerShadow_584_409"/>
<feColorMatrix in="SourceAlpha" type="matrix" values="0 0 0 0 0 0 0 0 0 0 0 0 0 0 0 0 0 0 127 0" result="hardAlpha"/>
<feOffset dx="-2" dy="2"/>
<feGaussianBlur stdDeviation="2"/>
<feComposite in2="hardAlpha" operator="arithmetic" k2="-1" k3="1"/>
<feColorMatrix type="matrix" values="0 0 0 0 0 0 0 0 0 0 0 0 0 0 0 0 0 0 0.25 0"/>
<feBlend mode="normal" in2="effect3_innerShadow_584_409" result="effect4_innerShadow_584_409"/>
</filter>
<filter id="filter1_iiii_584_409" x="35" y="36" width="126" height="126" filterUnits="userSpaceOnUse" color-interpolation-filters="sRGB">
<feFlood flood-opacity="0" result="BackgroundImageFix"/>
<feBlend mode="normal" in="SourceGraphic" in2="BackgroundImageFix" result="shape"/>
<feColorMatrix in="SourceAlpha" type="matrix" values="0 0 0 0 0 0 0 0 0 0 0 0 0 0 0 0 0 0 127 0" result="hardAlpha"/>
<feOffset dx="1" dy="1"/>
<feGaussianBlur stdDeviation="2"/>
<feComposite in2="hardAlpha" operator="arithmetic" k2="-1" k3="1"/>
<feColorMatrix type="matrix" values="0 0 0 0 0.843137 0 0 0 0 0.835294 0 0 0 0 0.835294 0 0 0 0.25 0"/>
<feBlend mode="normal" in2="shape" result="effect1_innerShadow_584_409"/>
<feColorMatrix in="SourceAlpha" type="matrix" values="0 0 0 0 0 0 0 0 0 0 0 0 0 0 0 0 0 0 127 0" result="hardAlpha"/>
<feOffset dx="-1" dy="-1"/>
<feGaussianBlur stdDeviation="2"/>
<feComposite in2="hardAlpha" operator="arithmetic" k2="-1" k3="1"/>
<feColorMatrix type="matrix" values="0 0 0 0 0.843137 0 0 0 0 0.835294 0 0 0 0 0.835294 0 0 0 0.25 0"/>
<feBlend mode="normal" in2="effect1_innerShadow_584_409" result="effect2_innerShadow_584_409"/>
<feColorMatrix in="SourceAlpha" type="matrix" values="0 0 0 0 0 0 0 0 0 0 0 0 0 0 0 0 0 0 127 0" result="hardAlpha"/>
<feOffset dx="1" dy="-1"/>
<feGaussianBlur stdDeviation="2"/>
<feComposite in2="hardAlpha" operator="arithmetic" k2="-1" k3="1"/>
<feColorMatrix type="matrix" values="0 0 0 0 0.843137 0 0 0 0 0.835294 0 0 0 0 0.835294 0 0 0 0.25 0"/>
<feBlend mode="normal" in2="effect2_innerShadow_584_409" result="effect3_innerShadow_584_409"/>
<feColorMatrix in="SourceAlpha" type="matrix" values="0 0 0 0 0 0 0 0 0 0 0 0 0 0 0 0 0 0 127 0" result="hardAlpha"/>
<feOffset dx="-1" dy="1"/>
<feGaussianBlur stdDeviation="2"/>
<feComposite in2="hardAlpha" operator="arithmetic" k2="-1" k3="1"/>
<feColorMatrix type="matrix" values="0 0 0 0 0.841667 0 0 0 0 0.834653 0 0 0 0 0.834653 0 0 0 0.25 0"/>
<feBlend mode="normal" in2="effect3_innerShadow_584_409" result="effect4_innerShadow_584_409"/>
</filter>
<linearGradient id="paint0_linear_584_409" x1="98.5" y1="197" x2="98.5" y2="0" gradientUnits="userSpaceOnUse">
<stop stop-color="#888A8C"/>
<stop offset="1" stop-color="#B0B0B0" stop-opacity="0"/>
</linearGradient>
</defs>
</svg>
