<svg width="185" height="98" viewBox="0 0 185 98" fill="none" xmlns="http://www.w3.org/2000/svg">
<g id="Group 26092569">
<g id="Group 26092568">
<g id="Icon">
<path d="M22.976 27.2732L49.4279 63.6812C50.6552 65.3703 52.3796 66.6266 54.3469 67.2596L68.0705 71.6886C71.4948 72.7947 73.6592 76.2525 73.1473 79.8013C72.5786 83.7428 68.9395 86.3868 65.0189 85.7069L51.277 83.3355C47.578 82.6972 44.1143 80.9701 41.3324 78.3781L30.8043 68.5638C28.7175 66.6171 27.0729 64.2418 25.9896 61.6018L20.991 49.439C20.3962 47.9818 19.6268 46.6037 18.7 45.3281L11.5918 35.5444" fill="url(#paint0_linear_288_9165)"/>
<path d="M22.976 27.2732L47.0248 60.373C49.397 63.6381 53.8915 64.4137 57.0677 62.106L58.2175 61.2706C60.8548 59.3545 61.8139 55.8386 60.5411 52.7461L56.2194 42.2253C55.5152 40.5138 54.6108 38.894 53.5225 37.396C50.8952 33.7798 43.1453 29.4093 43.1453 29.4093L30.5658 21.759" fill="url(#paint1_linear_288_9165)"/>
</g>
<rect id="Rectangle 6547" x="26.2368" y="7.72327" width="13.8988" height="32.4305" rx="4.63293" transform="rotate(54 26.2368 7.72327)" fill="#D77114"/>
</g>
<path id="Icon_2" fill-rule="evenodd" clip-rule="evenodd" d="M92.0678 13.9896C87.0307 7.99564 78.5583 6.32118 72.1346 11.7135C65.7108 17.1058 64.7336 26.2068 69.6847 32.6938C72.7446 36.703 80.4371 44.0357 85.8673 49.0526C87.8737 50.9063 88.8769 51.8331 90.0904 52.2133C91.1313 52.5393 92.3314 52.5498 93.3778 52.242C94.5978 51.883 95.617 50.9739 97.6555 49.1555C103.172 44.2341 110.992 37.0367 114.121 33.0816C119.185 26.6819 118.476 17.509 112.038 12.0617C105.599 6.61447 97.2088 8.08447 92.0678 13.9896Z" fill="url(#paint2_linear_288_9165)"/>
<g id="Group 26092568_2">
<g id="Icon_3">
<path d="M161.831 27.2732L135.379 63.6812C134.152 65.3703 132.427 66.6266 130.46 67.2596L116.737 71.6886C113.312 72.7947 111.148 76.2525 111.66 79.8013C112.228 83.7428 115.868 86.3868 119.788 85.7069L133.53 83.3355C137.229 82.6972 140.693 80.9701 143.475 78.3781L154.003 68.5638C156.09 66.6171 157.734 64.2418 158.817 61.6018L163.816 49.439C164.411 47.9818 165.18 46.6037 166.107 45.3281L173.215 35.5444" fill="url(#paint3_linear_288_9165)"/>
<path d="M161.831 27.2732L137.782 60.373C135.41 63.6381 130.916 64.4137 127.739 62.106L126.59 61.2706C123.952 59.3545 122.993 55.8386 124.266 52.7461L128.588 42.2253C129.292 40.5138 130.196 38.894 131.285 37.396C133.912 33.7798 141.662 29.4093 141.662 29.4093L154.241 21.759" fill="url(#paint4_linear_288_9165)"/>
</g>
<rect id="Rectangle 6547_2" width="13.8988" height="32.4305" rx="4.63293" transform="matrix(-0.587786 0.809017 0.809017 0.587785 158.57 7.72327)" fill="#D77114"/>
</g>
</g>
<defs>
<linearGradient id="paint0_linear_288_9165" x1="24.1626" y1="25.3814" x2="72.7285" y2="86.0887" gradientUnits="userSpaceOnUse">
<stop stop-color="#FFCEAA"/>
<stop offset="1" stop-color="#FF9432"/>
</linearGradient>
<linearGradient id="paint1_linear_288_9165" x1="24.1626" y1="25.3814" x2="72.7285" y2="86.0887" gradientUnits="userSpaceOnUse">
<stop stop-color="#FFCEAA"/>
<stop offset="1" stop-color="#FF9432"/>
</linearGradient>
<linearGradient id="paint2_linear_288_9165" x1="87.5383" y1="6.28657" x2="99.0449" y2="50.7793" gradientUnits="userSpaceOnUse">
<stop stop-color="#FF9999"/>
<stop offset="1" stop-color="#EF3B3B"/>
</linearGradient>
<linearGradient id="paint3_linear_288_9165" x1="160.644" y1="25.3814" x2="112.079" y2="86.0887" gradientUnits="userSpaceOnUse">
<stop stop-color="#FFCEAA"/>
<stop offset="1" stop-color="#FF9432"/>
</linearGradient>
<linearGradient id="paint4_linear_288_9165" x1="160.644" y1="25.3814" x2="112.079" y2="86.0887" gradientUnits="userSpaceOnUse">
<stop stop-color="#FFCEAA"/>
<stop offset="1" stop-color="#FF9432"/>
</linearGradient>
</defs>
</svg>
